<?xml version="1.0" encoding="utf-8" ?><svg xmlns="http://www.w3.org/2000/svg" xmlns:xlink="http://www.w3.org/1999/xlink" width="390" height="62"><rect fill="#0A1628" width="390" height="62"/><path fill="#FFF" transform="matrix(1 0 0 1 33 25)" d="M-0.7071 6.7071L5.2929 12.7071Q5.5808 13.0121 6 13Q6.4192 13.0121 6.7071 12.7071Q7.0121 12.4192 7 12Q7.0121 11.5808 6.7071 11.2929L1.4142 6L6.7071 0.7071Q7.0121 0.4192 7 0Q7.0121 -0.4192 6.7071 -0.7071Q6.4192 -1.0121 6 -1Q5.5808 -1.0121 5.2929 -0.7071L-0.7071 5.2929Q-1.0121 5.5808 -1 6Q-1.0121 6.4192 -0.7071 6.7071Z" fill-rule="evenodd"/><circle fill="#FFF" transform="matrix(1 0 0 1 352.5 22.5)" cx="1.5" cy="1.5" r="1.5"/><circle fill="#FFF" transform="matrix(1 0 0 1 352.5 29.5)" cx="1.5" cy="1.5" r="1.5"/><circle fill="#FFF" transform="matrix(1 0 0 1 352.5 36.5)" cx="1.5" cy="1.5" r="1.5"/></svg>