<?xml version="1.0" encoding="utf-8" ?><svg xmlns="http://www.w3.org/2000/svg" xmlns:xlink="http://www.w3.org/1999/xlink" width="64" height="24"><path fill="#FFF" transform="matrix(1 0 0 1 4 4)" d="M14 7Q14 4.1005 11.9497 2.0503Q9.8995 0 7 0Q4.1005 0 2.0503 2.0503Q0 4.1005 0 7Q0 9.8995 2.0503 11.9497Q4.1005 14 7 14Q9.8995 14 11.9497 11.9497Q14 9.8995 14 7ZM3.4645 3.4645Q4.9289 2 7 2Q9.0711 2 10.5355 3.4645Q12 4.9289 12 7Q12 9.0711 10.5355 10.5355Q9.0711 12 7 12Q4.9289 12 3.4645 10.5355Q2 9.0711 2 7Q2 4.9289 3.4645 3.4645Z" fill-rule="evenodd"/><path fill="#FFF" transform="matrix(1 0 0 1 16 16)" d="M4.7071 3.2929L0.7071 -0.7071Q0.4192 -1.0121 0 -1Q-0.4192 -1.0121 -0.7071 -0.7071Q-1.0121 -0.4192 -1 0Q-1.0121 0.4192 -0.7071 0.7071L3.2929 4.7071Q3.5808 5.0121 4 5Q4.4192 5.0121 4.7071 4.7071Q5.0121 4.4192 5 4Q5.0121 3.5808 4.7071 3.2929Z" fill-rule="evenodd"/><circle fill="#FFF" transform="matrix(1 0 0 1 50.5 3.5)" cx="1.5" cy="1.5" r="1.5"/><circle fill="#FFF" transform="matrix(1 0 0 1 50.5 10.5)" cx="1.5" cy="1.5" r="1.5"/><circle fill="#FFF" transform="matrix(1 0 0 1 50.5 17.5)" cx="1.5" cy="1.5" r="1.5"/></svg>