<?xml version="1.0" encoding="utf-8" ?><svg xmlns="http://www.w3.org/2000/svg" xmlns:xlink="http://www.w3.org/1999/xlink" width="350" height="80"><rect fill="#112240" width="350" height="80" rx="16" ry="16"/><path fill="#B3B3B3" transform="matrix(1 0 0 1 90 31)" d="M7.216 6.1554L0.5303 -0.5303Q0.3144 -0.759 0 -0.75Q-0.3144 -0.759 -0.5303 -0.5303Q-0.759 -0.3144 -0.75 0Q-0.759 0.3144 -0.5303 0.5303L6.1554 7.216Q6.3713 7.4448 6.6857 7.4357Q7.0001 7.4448 7.216 7.216Q7.4448 7.0001 7.4357 6.6857Q7.4448 6.3713 7.216 6.1554ZM16.1893 0.75L10.784 6.1554Q10.5552 6.3713 10.5643 6.6857Q10.5552 7.0001 10.784 7.216Q10.9999 7.4448 11.3143 7.4357Q11.6287 7.4448 11.8446 7.216L17.25 1.8107L17.25 5Q17.241 5.3144 17.4697 5.5303Q17.6856 5.759 18 5.75Q18.3144 5.759 18.5303 5.5303Q18.759 5.3144 18.75 5L18.75 0.0474Q18.7507 0.024 18.75 0Q18.7591 -0.3144 18.5303 -0.5303Q18.3144 -0.759 18 -0.75Q17.9761 -0.7507 17.9527 -0.75L13 -0.75Q12.6856 -0.759 12.4697 -0.5303Q12.241 -0.3144 12.25 0Q12.241 0.3144 12.4697 0.5303Q12.6856 0.759 13 0.75L16.1893 0.75ZM12.9697 8.5983L10.784 10.784Q10.5552 10.9999 10.5643 11.3143Q10.5552 11.6287 10.784 11.8446Q10.9999 12.0733 11.3143 12.0643Q11.6287 12.0733 11.8446 11.8446L14.0303 9.6589Q14.259 9.443 14.25 9.1286Q14.259 8.8142 14.0303 8.5983Q13.8144 8.3696 13.5 8.3786Q13.1856 8.3696 12.9697 8.5983ZM6.1554 10.784L-0.5303 17.4697Q-0.759 17.6856 -0.75 18Q-0.759 18.3144 -0.5303 18.5303Q-0.3144 18.7591 0 18.75Q0.3144 18.7591 0.5303 18.5303L7.216 11.8446Q7.4448 11.6287 7.4357 11.3143Q7.4448 10.9999 7.216 10.784Q7.0001 10.5552 6.6857 10.5643Q6.3713 10.5552 6.1554 10.784ZM18.75 13Q18.7507 13.024 18.75 13.0474L18.75 18Q18.7591 18.3144 18.5303 18.5303Q18.3144 18.7591 18 18.75L13.0474 18.75Q13.024 18.7507 13 18.75Q12.7249 18.7579 12.5252 18.5838Q12.4967 18.5589 12.4697 18.5303Q12.241 18.3144 12.25 18Q12.241 17.6856 12.4697 17.4697Q12.4861 17.4523 12.5031 17.4362L17.4362 12.5031Q17.4523 12.4861 17.4697 12.4697Q17.6856 12.241 18 12.25Q18.3144 12.241 18.5303 12.4697Q18.759 12.6856 18.75 13ZM14.8107 17.25L17.25 17.25L17.25 14.8107L14.8107 17.25Z" fill-rule="evenodd"/><path fill="#FFF" transform="matrix(1 0 0 1 126 30)" d="M1.4866 10L11.6727 0.7399Q11.991 0.4669 11.9989 0.0476Q12.0309 -0.3706 11.7399 -0.6727Q11.4669 -0.991 11.0476 -0.9989Q10.6294 -1.0309 10.3273 -0.7399L-0.6727 9.2601Q-0.991 9.5331 -0.9989 9.9524Q-1.0309 10.3706 -0.7399 10.6727Q-0.7239 10.6903 -0.7071 10.7071Q-0.6903 10.7239 -0.6727 10.7399L10.3273 20.7399Q10.6294 21.0309 11.0476 20.9989Q11.4669 20.991 11.7399 20.6727Q12.0309 20.3706 11.9989 19.9524Q11.991 19.5331 11.6727 19.2601L1.4866 10Z" fill-rule="evenodd"/><path fill="#FFF" transform="matrix(1 0 0 1 121 30)" d="M1 20L1 0Q1.0121 -0.4192 0.7071 -0.7071Q0.4192 -1.0121 0 -1Q-0.4192 -1.0121 -0.7071 -0.7071Q-1.0121 -0.4192 -1 0L-1 20Q-1.0121 20.4192 -0.7071 20.7071Q-0.4192 21.0121 0 21Q0.4192 21.0121 0.7071 20.7071Q1.0121 20.4192 1 20Z" fill-rule="evenodd"/><circle fill="#4FC3F7" transform="matrix(1 0 0 1 147 12)" cx="28" cy="28" r="28"/><path fill="#000" transform="matrix(1 0 0 1 171 33)" d="M0 0L14 9L0 18L0 0Z"/><path fill="#FFF" transform="matrix(1 0 0 1 213 30)" d="M11.6727 9.2601L0.6727 -0.7399Q0.3706 -1.0309 -0.0476 -0.9989Q-0.4669 -0.991 -0.7399 -0.6727Q-1.0309 -0.3706 -0.9989 0.0476Q-0.991 0.4669 -0.6727 0.7399L9.5134 10L-0.6727 19.2601Q-0.991 19.5331 -0.9989 19.9524Q-1.0309 20.3706 -0.7399 20.6727Q-0.4669 20.991 -0.0476 20.9989Q0.3706 21.0309 0.6727 20.7399L11.6727 10.7399Q11.6903 10.7239 11.7071 10.7071Q11.7239 10.6903 11.7399 10.6727Q12.0309 10.3706 11.9989 9.9524Q11.991 9.5331 11.6727 9.2601Z" fill-rule="evenodd"/><path fill="#FFF" transform="matrix(1 0 0 1 229 30)" d="M1 20L1 0Q1.0121 -0.4192 0.7071 -0.7071Q0.4192 -1.0121 0 -1Q-0.4192 -1.0121 -0.7071 -0.7071Q-1.0121 -0.4192 -1 0L-1 20Q-1.0121 20.4192 -0.7071 20.7071Q-0.4192 21.0121 0 21Q0.4192 21.0121 0.7071 20.7071Q1.0121 20.4192 1 20Z" fill-rule="evenodd"/><path fill="#B3B3B3" transform="matrix(1 0 0 1 242 30)" d="M14.5303 -0.5303L18.4969 3.4362Q18.5139 3.4523 18.5303 3.4697Q18.759 3.6856 18.75 4Q18.759 4.3144 18.5303 4.5303L18.5303 4.5304L18.4969 4.5637L14.5303 8.5303Q14.3144 8.759 14 8.75Q13.6856 8.759 13.4697 8.5303Q13.241 8.3144 13.25 8Q13.241 7.6856 13.4697 7.4697L16.1893 4.75L5 4.75Q3.2396 4.75 1.9948 5.9948Q0.75 7.2396 0.75 9L0.75 11Q0.759 11.3144 0.5303 11.5303Q0.3144 11.759 0 11.75Q-0.3144 11.759 -0.5303 11.5303Q-0.759 11.3144 -0.75 11L-0.75 9Q-0.75 6.6183 0.9341 4.9341Q2.6183 3.25 5 3.25L16.1893 3.25L13.4697 0.5303Q13.241 0.3144 13.25 0Q13.241 -0.3144 13.4697 -0.5303Q13.6856 -0.759 14 -0.75Q14.3144 -0.759 14.5303 -0.5303ZM-0.4969 15.4362L3.4697 11.4697Q3.6856 11.241 4 11.25Q4.3144 11.241 4.5303 11.4697Q4.759 11.6856 4.75 12Q4.759 12.3144 4.5303 12.5303L1.8107 15.25L13 15.25Q14.7604 15.25 16.0052 14.0052Q17.25 12.7604 17.25 11L17.25 9Q17.241 8.6856 17.4697 8.4697Q17.6856 8.241 18 8.25Q18.3144 8.241 18.5303 8.4697Q18.759 8.6856 18.75 9L18.75 11Q18.75 13.3817 17.0659 15.0659Q15.3817 16.75 13 16.75L1.8107 16.75L4.5303 19.4697Q4.759 19.6856 4.75 20Q4.759 20.3144 4.5303 20.5303Q4.3144 20.7591 4 20.75Q3.6856 20.7591 3.4697 20.5303L-0.4969 16.5638L-0.5303 16.5304L-0.5303 16.5303Q-0.759 16.3144 -0.75 16Q-0.7579 15.7249 -0.5838 15.5252Q-0.5589 15.4967 -0.5303 15.4697Q-0.5139 15.4523 -0.4969 15.4362Z" fill-rule="evenodd"/></svg>