<?xml version="1.0" encoding="utf-8" ?><svg xmlns="http://www.w3.org/2000/svg" xmlns:xlink="http://www.w3.org/1999/xlink" width="350" height="24"><path fill="#FFF" transform="matrix(1 0 0 1 135 6)" d="M16 -0.75L0 -0.75Q-0.3144 -0.759 -0.5303 -0.5303Q-0.759 -0.3144 -0.75 0Q-0.759 0.3144 -0.5303 0.5303Q-0.3144 0.759 0 0.75L16 0.75Q16.3144 0.759 16.5303 0.5303Q16.7591 0.3144 16.75 0Q16.7591 -0.3144 16.5303 -0.5303Q16.3144 -0.759 16 -0.75ZM12 5.25L0 5.25Q-0.3144 5.241 -0.5303 5.4697Q-0.759 5.6856 -0.75 6Q-0.759 6.3144 -0.5303 6.5303Q-0.3144 6.759 0 6.75L12 6.75Q12.3144 6.759 12.5303 6.5303Q12.759 6.3144 12.75 6Q12.759 5.6856 12.5303 5.4697Q12.3144 5.241 12 5.25ZM8 11.25L0 11.25Q-0.3144 11.241 -0.5303 11.4697Q-0.759 11.6856 -0.75 12Q-0.759 12.3144 -0.5303 12.5303Q-0.3144 12.759 0 12.75L8 12.75Q8.3144 12.759 8.5303 12.5303Q8.759 12.3144 8.75 12Q8.759 11.6856 8.5303 11.4697Q8.3144 11.241 8 11.25Z" fill-rule="evenodd"/><path fill="#FFF" transform="matrix(1 0 0 1 198 4)" d="M13.4362 -0.4969L10.7257 2.2137Q10.7533 2.1132 10.75 2Q10.759 1.6856 10.5303 1.4697Q10.3144 1.241 10 1.25L0 1.25Q-0.3144 1.241 -0.5303 1.4697Q-0.759 1.6856 -0.75 2Q-0.759 2.3144 -0.5303 2.5303Q-0.3144 2.759 0 2.75L10 2.75Q10.1684 2.7548 10.3085 2.6915Q10.2452 2.8316 10.25 3Q10.241 3.3144 10.4697 3.5303Q10.6856 3.759 11 3.75Q11.3144 3.759 11.5303 3.5303L13.25 1.8107L13.25 16Q13.2409 16.3144 13.4697 16.5303Q13.6856 16.7591 14 16.75Q14.3144 16.7591 14.5303 16.5303Q14.759 16.3144 14.75 16L14.75 1.8107L16.4697 3.5303Q16.6856 3.759 17 3.75Q17.3144 3.759 17.5303 3.5303Q17.759 3.3144 17.75 3Q17.759 2.6856 17.5303 2.4697L14.5638 -0.4969Q14.5477 -0.5139 14.5303 -0.5303Q14.3144 -0.759 14 -0.75Q13.6856 -0.759 13.4697 -0.5303Q13.4523 -0.5139 13.4362 -0.4969L13.4362 -0.4969ZM10 7.25L0 7.25Q-0.3144 7.2409 -0.5303 7.4697Q-0.759 7.6856 -0.75 8Q-0.759 8.3144 -0.5303 8.5303Q-0.3144 8.759 0 8.75L10 8.75Q10.3144 8.759 10.5303 8.5303Q10.759 8.3144 10.75 8Q10.759 7.6856 10.5303 7.4697Q10.3144 7.2409 10 7.25ZM7 13.25L0 13.25Q-0.3144 13.2409 -0.5303 13.4697Q-0.759 13.6856 -0.75 14Q-0.759 14.3144 -0.5303 14.5303Q-0.3144 14.759 0 14.75L7 14.75Q7.3144 14.759 7.5303 14.5303Q7.759 14.3144 7.75 14Q7.759 13.6856 7.5303 13.4697Q7.3144 13.2409 7 13.25Z" fill-rule="evenodd"/></svg>