<?xml version="1.0" encoding="utf-8" ?><svg xmlns="http://www.w3.org/2000/svg" xmlns:xlink="http://www.w3.org/1999/xlink" width="18" height="18"><path fill="#000" transform="matrix(1 0 0 1 3 3.75)" d="M4.5 -0.7569Q4.5876 -0.758 4.6736 -0.7354Q4.7583 -0.7177 4.8344 -0.6791L9.1451 0.7578Q9.217 0.7734 9.2877 0.8055Q9.3604 0.8328 9.4222 0.8726L12.2438 2.2834Q12.3248 2.3099 12.3972 2.3573Q12.474 2.402 12.5352 2.4648Q12.598 2.526 12.6427 2.6028Q12.7102 2.7058 12.7354 2.8264Q12.758 2.9124 12.7569 3Q12.7576 3.0515 12.75 3.1024L12.75 10.5Q12.759 10.8144 12.5303 11.0303Q12.3144 11.259 12 11.25Q11.6856 11.259 11.4697 11.0303Q11.241 10.8144 11.25 10.5L11.25 4.2135L9.3354 5.1708Q9.0582 5.3195 8.7628 5.2115Q8.4617 5.1207 8.3292 4.8354Q8.1805 4.5582 8.2885 4.2628Q8.3793 3.9617 8.6646 3.8292L10.3229 3L8.7123 2.1947L5.25 1.0406L5.25 8.8976Q5.2664 9.0078 5.2442 9.1208Q5.2247 9.2719 5.1427 9.3972Q5.0673 9.5266 4.9409 9.6117Q4.8497 9.682 4.7438 9.7166L3.1771 10.5L4.8354 11.3292Q5.1207 11.4617 5.2115 11.7628Q5.3195 12.0582 5.1708 12.3354Q5.0383 12.6207 4.7372 12.7115Q4.4418 12.8195 4.1646 12.6708L1.2562 11.2166Q1.1752 11.1901 1.1028 11.1427Q1.026 11.098 0.9648 11.0352Q0.902 10.974 0.8573 10.8972Q0.7898 10.7942 0.7646 10.6736Q0.742 10.5876 0.7431 10.5Q0.7424 10.4485 0.75 10.3976L0.75 9Q0.741 8.6856 0.9697 8.4697Q1.1856 8.241 1.5 8.25Q1.8144 8.241 2.0303 8.4697Q2.259 8.6856 2.25 9L2.25 9.2865L3.75 8.5365L3.75 1.0406L0.2372 2.2115Q-0.0582 2.3195 -0.3354 2.1708Q-0.6207 2.0383 -0.7115 1.7372Q-0.8195 1.4418 -0.6708 1.1646Q-0.5383 0.8793 -0.2372 0.7885L4.1656 -0.6791Q4.2417 -0.7177 4.3264 -0.7354Q4.4124 -0.758 4.5 -0.7569Z" fill-rule="evenodd"/></svg>