<?xml version="1.0" encoding="utf-8" ?><svg xmlns="http://www.w3.org/2000/svg" xmlns:xlink="http://www.w3.org/1999/xlink" width="18" height="18"><path fill="#89A" transform="matrix(1 0 0 1 3 2)" d="M6.75 8.1893L6.75 0Q6.759 -0.3144 6.5303 -0.5303Q6.3144 -0.759 6 -0.75Q5.6856 -0.759 5.4697 -0.5303Q5.241 -0.3144 5.25 0L5.25 8.1893L2.5303 5.4697Q2.3144 5.241 2 5.25Q1.6856 5.241 1.4697 5.4697Q1.241 5.6856 1.25 6Q1.241 6.3144 1.4697 6.5303L5.4362 10.4969Q5.4523 10.5139 5.4697 10.5303Q5.6856 10.759 6 10.75Q6.3144 10.759 6.5303 10.5303Q6.5477 10.5139 6.5638 10.4969L10.5303 6.5303Q10.759 6.3144 10.75 6Q10.759 5.6856 10.5303 5.4697Q10.3144 5.241 10 5.25Q9.6856 5.241 9.4697 5.4697L6.75 8.1893ZM0.75 12L0.75 13.25L11.25 13.25L11.25 12Q11.241 11.6856 11.4697 11.4697Q11.6856 11.241 12 11.25Q12.3144 11.241 12.5303 11.4697Q12.759 11.6856 12.75 12L12.75 14Q12.759 14.3144 12.5303 14.5303Q12.3144 14.759 12 14.75L0 14.75Q-0.3144 14.759 -0.5303 14.5303Q-0.759 14.3144 -0.75 14L-0.75 12Q-0.759 11.6856 -0.5303 11.4697Q-0.3144 11.241 0 11.25Q0.3144 11.241 0.5303 11.4697Q0.759 11.6856 0.75 12Z" fill-rule="evenodd"/></svg>